<svg width="17" height="22" viewBox="0 0 17 22" fill="none" xmlns="http://www.w3.org/2000/svg">
<path d="M15.6095 4.01033C14.0671 1.49914 11.3827 0 8.43315 0C5.47817 0 2.79379 1.49914 1.25135 4.01033C-0.285671 6.5107 -0.41556 9.56851 0.910393 12.1879C0.921217 12.2096 0.932041 12.2312 0.948277 12.2529L6.76082 21.0962C7.13425 21.6645 7.75664 22 8.43315 22C9.10965 22 9.73745 21.6645 10.1055 21.0962L15.918 12.2529C15.9288 12.2312 15.9451 12.2096 15.9559 12.1879C17.2764 9.56851 17.152 6.5107 15.6095 4.01033ZM12.7628 8.32915C12.7628 10.7105 10.8199 12.648 8.42773 12.648C6.03561 12.648 4.09268 10.7105 4.09268 8.32915C4.09268 5.94785 6.03561 4.01033 8.42773 4.01033C10.8199 4.01033 12.7628 5.94244 12.7628 8.32915Z" fill="white"/>
<path d="M9.36299 6.95429L8.09115 8.22613C8.07492 8.24236 8.05868 8.24777 8.03162 8.24777C8.00997 8.24777 7.98833 8.23695 7.9775 8.22071L7.54454 7.69575C7.31723 7.41973 6.91133 7.38185 6.63531 7.60915C6.3593 7.83646 6.32141 8.24236 6.54872 8.51838L6.98168 9.04335C7.22523 9.34101 7.58783 9.51961 7.96668 9.53584C7.98833 9.53584 8.00997 9.53584 8.03162 9.53584C8.39423 9.53584 8.7406 9.38972 8.99497 9.13535L10.2668 7.86352C10.5212 7.60915 10.5212 7.20325 10.2668 6.95429C10.0178 6.70534 9.61194 6.70534 9.36299 6.95429Z" fill="white"/>
</svg>
