<svg width="30" height="20" viewBox="0 0 30 20" fill="none" xmlns="http://www.w3.org/2000/svg">
<path fill-rule="evenodd" clip-rule="evenodd" d="M3 0C1.34315 0 0 1.34314 0 3V6.73417H0.000990629C1.69166 6.73417 3.06221 8.10472 3.06221 9.79539C3.06221 11.4861 1.69166 12.8566 0.000990629 12.8566H0V16.5918C0 18.2487 1.34315 19.5918 3 19.5918H27C28.6569 19.5918 30 18.2487 30 16.5918V12.8566C28.3099 12.856 26.94 11.4857 26.94 9.79539C26.94 8.10512 28.3099 6.73481 30 6.73417V3C30 1.34315 28.6569 0 27 0H3ZM18.5004 16.2028L17.2639 17.006L15.5451 10.9767L12.1447 13.1856L12.0335 15.0443L11.1061 15.6468L10.2961 13.0466L8.24969 11.2496L9.17706 10.6472L10.9205 11.3011L14.3209 9.09221L9.5108 5.07095L10.7473 4.26772L17.103 7.28494L20.5033 5.07606C20.7493 4.91628 21.0496 4.86233 21.3383 4.92605C21.627 4.98978 21.8804 5.16598 22.0428 5.41588C22.2051 5.66577 22.2631 5.96891 22.204 6.25859C22.1448 6.54827 21.9734 6.80077 21.7275 6.96054L18.3272 9.16943L18.5004 16.2028Z" fill="white"/>
</svg>
