<svg width="16" height="15" viewBox="0 0 16 15" fill="none" xmlns="http://www.w3.org/2000/svg">
<path d="M4.8 15L6.4 15L10.4 8.68421L14.8 8.68421C15.1183 8.68421 15.4235 8.55945 15.6485 8.33736C15.8736 8.11528 16 7.81407 16 7.5C16 7.18593 15.8736 6.88472 15.6485 6.66264C15.4235 6.44055 15.1183 6.31579 14.8 6.31579L10.4 6.31579L6.4 -4.19629e-07L4.8 -4.89567e-07L6.8 6.31579L2.4 6.31579L1.2 4.73684L7.4662e-07 4.73684L0.800001 7.5L5.05057e-07 10.2632L1.2 10.2632L2.4 8.68421L6.8 8.68421L4.8 15Z" fill="#EC2029"/>
</svg>
