<svg width="32" height="32" viewBox="0 0 32 32" fill="none" xmlns="http://www.w3.org/2000/svg">
<path fill-rule="evenodd" clip-rule="evenodd" d="M30 3.414L28.586 2L18.9312 11.6549L20.3122 13.1018L25.146 8.268C26.9882 10.423 28.0003 13.1649 28 16C28.0052 18.2884 27.3545 20.5305 26.1249 22.4605C24.8953 24.3906 23.1383 25.9278 21.0621 26.8902C18.9858 27.8525 16.6772 28.1997 14.4098 27.8906C12.1423 27.5815 10.0109 26.629 8.268 25.146L11.8479 21.5661L10.4656 20.1204L2 28.586L3.414 30L6.857 26.557C9.52261 28.889 12.9749 30.1208 16.5147 30.0028C20.0545 29.8848 23.4171 28.4258 25.9215 25.9215C28.4258 23.4171 29.8848 20.0545 30.0028 16.5147C30.1208 12.9749 28.889 9.52261 26.557 6.857L30 3.414Z" fill="#9D9D9D"/>
<path d="M5.67002 22.0849C4.31527 19.7957 3.76072 17.1208 4.09376 14.4817C4.42679 11.8426 5.62848 9.38933 7.50947 7.50846C9.39045 5.62759 11.8438 4.42605 14.4829 4.09317C17.122 3.7603 19.7969 4.31501 22.086 5.6699L23.54 4.2159C20.8543 2.49151 17.6596 1.73765 14.4863 2.07949C11.313 2.42134 8.35211 3.83833 6.09528 6.09516C3.83845 8.35199 2.42146 11.3129 2.07962 14.4862C1.73777 17.6594 2.49163 20.8542 4.21602 23.5399L5.67002 22.0849Z" fill="#9D9D9D"/>
<path d="M24.0004 19.6V17.8L17.2635 13.3V8.35C17.2635 7.99196 17.1304 7.64858 16.8936 7.39541C16.6567 7.14223 16.3354 7 16.0004 7C15.6654 7 15.3441 7.14223 15.1072 7.39541C14.8703 7.64858 14.7372 7.99196 14.7372 8.35V13.3L8.00037 17.8V19.6L14.7372 17.35V22.3L13.053 23.65V25L16.0004 24.1L18.9477 25V23.65L17.2635 22.3V17.35L24.0004 19.6Z" fill="#9D9D9D"/>
</svg>
