<svg width="30" height="20" viewBox="0 0 30 20" fill="none" xmlns="http://www.w3.org/2000/svg">
<path d="M29.9998 18.8842C29.7745 19.2392 29.4217 19.3533 28.9488 19.3406C28.123 19.3153 27.3047 19.328 26.479 19.3343C25.8784 19.3406 25.5781 19.1124 25.5781 18.5925C25.5856 15.9614 25.5856 13.3303 25.5781 10.6929C25.5781 10.1603 25.8634 9.9511 26.4715 9.96378C27.2972 9.9828 28.123 9.93208 28.9413 9.9828C29.3016 10.0018 29.6469 10.1984 29.9998 10.3125C29.9998 13.1655 29.9998 16.0248 29.9998 18.8842Z" fill="white"/>
<path d="M18.0338 16.8933C17.5683 16.4242 17.1029 16.253 16.5098 16.253C14.4154 16.2657 12.3284 16.2657 10.234 16.253C9.15295 16.2467 8.26712 15.917 7.78667 15.0547C7.0735 13.755 8.07944 12.3729 9.78354 12.3348C11.4951 12.2968 13.2142 12.3031 14.9258 12.3285C15.5715 12.3348 16.1195 12.2271 16.6825 11.9354C18.8295 10.8386 21.0816 10.6547 23.4388 11.4472C24.0319 11.6438 24.2871 11.9164 24.2721 12.487C24.2195 14.0657 24.2345 15.6444 24.2646 17.223C24.2721 17.6985 24.1069 17.8824 23.5214 18.0092C21.4419 18.4593 19.4075 19.0616 17.3206 19.4801C13.9349 20.1585 10.6168 19.8478 7.44135 18.6305C6.76572 18.3706 6.09759 18.0092 5.57961 17.5654C3.86801 16.0882 2.21646 14.5602 0.572427 13.0322C0.302175 12.7913 0.0244149 12.4363 0.00189383 12.1193C-0.0206272 11.7959 0.159541 11.3331 0.444808 11.1619C0.730075 10.9971 1.25557 11.1049 1.66845 11.1556C1.83361 11.1746 1.97624 11.3648 2.11887 11.4789C3.62778 12.6709 5.13669 13.8628 6.64561 15.0611C6.7507 15.1435 6.84079 15.2576 6.90835 15.3717C7.4939 16.3227 8.44729 16.8553 9.67844 16.8807C12.411 16.925 15.1511 16.8933 18.0338 16.8933Z" fill="white"/>
<path d="M18.9205 0.0671617C19.7688 0.117882 20.5045 0.859673 20.512 1.59512C20.542 3.77611 20.5495 5.9571 20.512 8.13809C20.497 8.99401 19.5436 9.72946 18.4626 9.74214C15.7 9.76116 12.9449 9.7675 10.1823 9.74214C9.01118 9.72946 8.11034 8.92426 8.10283 7.90351C8.08031 5.87468 8.08031 3.84585 8.10283 1.81069C8.11784 0.834312 8.95863 0.0861819 10.0922 0.0354612C11.0681 -0.0215996 17.6893 -0.00891939 18.9205 0.0671617ZM11.7437 4.77785C12.3593 4.80321 12.7947 4.82223 13.3277 4.84759C13.3277 5.8937 13.3277 6.90812 13.3277 7.93521C14.1535 7.93521 14.8817 7.93521 15.6925 7.93521C15.6925 6.87642 15.6925 5.862 15.6925 4.79687C16.2179 4.79687 16.6534 4.79687 17.2915 4.79687C16.3005 3.79513 15.4147 2.90752 14.5063 1.98821C13.583 2.9202 12.7197 3.78879 11.7437 4.77785Z" fill="white"/>
<path d="M2.06543 10.5352C2.32066 10.1231 2.73354 10.066 3.04883 10.2689C4.40008 11.1502 5.72129 12.0631 7.01248 12.9951C7.12508 13.0712 7.035 13.4389 6.9224 13.6101C6.86234 13.6989 6.44946 13.7433 6.33686 13.6672C4.90304 12.6338 3.48424 11.5813 2.06543 10.5352Z" fill="white"/>
<path d="M4.29541 9.48242C4.4906 9.5268 4.62572 9.52046 4.70079 9.57118C5.72925 10.2052 6.76522 10.8392 7.76365 11.5112C7.89878 11.6063 7.94382 11.9487 7.86124 12.0945C7.70359 12.3608 7.42584 12.4812 7.05799 12.2149C6.07457 11.4922 5.05362 10.8011 4.0627 10.0847C3.95009 10.0023 3.80746 9.77406 3.84499 9.74236C3.96511 9.61556 4.1678 9.54582 4.29541 9.48242Z" fill="white"/>
</svg>
