<svg width="120" height="120" viewBox="0 0 120 120" fill="none" xmlns="http://www.w3.org/2000/svg">
<g filter="url(#filter0_i)">
<rect width="120" height="120" rx="30" fill="url(#paint0_linear)"/>
</g>
<g filter="url(#filter1_di)">
<path fill-rule="evenodd" clip-rule="evenodd" d="M42.0043 12.3851C39.9674 12.3851 38.3682 14.1788 38.9574 16.1287C41.6871 25.1625 50.0751 31.7404 59.9995 31.7404C69.9242 31.7404 78.3125 25.162 81.042 16.1278C81.6309 14.1784 80.0321 12.3851 77.9957 12.3851C76.341 12.3851 74.9648 13.5962 74.3844 15.1458C72.2031 20.9698 66.5859 25.1156 60.0004 25.1156C53.4152 25.1156 47.7982 20.9702 45.6166 15.1465C45.036 13.5965 43.6595 12.3851 42.0043 12.3851Z" fill="white"/>
</g>
<path d="M79.5926 58.2653L74.6252 68.5135H67.502L72.1804 58.616C72.7021 59.2914 73.5688 60.2093 74.677 60.3175C74.677 60.3175 76.4707 60.6249 79.5926 58.2653Z" fill="url(#paint1_linear)"/>
<path d="M66.6567 47.4062C64.7077 47.4236 63.5909 48.3848 63.2503 48.5969C62.9182 48.8091 54.8507 55.2689 54.8507 55.2689C53.6649 56.1608 53.2121 56.5288 52.7551 56.663C52.6085 56.7063 52.5826 56.8968 52.712 56.9791C53.4665 57.4424 54.2815 58.1308 54.8119 59.815C54.8119 59.815 57.5284 67.0325 57.6405 67.2577C57.7698 67.5175 58.0846 68.5349 60.0336 68.5176L65.0268 68.509L61.0598 57.49L69.2136 50.9349L67.3811 47.4106L66.6567 47.4062Z" fill="url(#paint2_linear)"/>
<path d="M49.2002 47.3114L39.5933 68.5137H46.9451L56.5089 47.3114H49.2002Z" fill="url(#paint3_linear)"/>
<path d="M30.6947 47.4673C30.6904 47.4759 30.6904 47.4846 30.6861 47.4932C29.9746 49.1299 31.9451 51.7233 34.2779 53.9617C34.4288 54.1046 34.5797 54.2475 34.7306 54.386C34.7306 54.386 37.6627 54.3341 39.9179 54.3341C42.9793 54.3341 44.5747 53.6457 47.4292 47.3114C47.4292 47.3114 31.0741 47.3937 30.6947 47.4673Z" fill="url(#paint4_linear)"/>
<path d="M25.5809 61.4571C23.1619 61.4615 22.0538 62.6998 20.9068 64.5615L19.126 68.5101C19.126 68.5101 30.7595 68.4755 33.0664 68.4755C35.3732 68.4755 35.7699 68.2677 35.7699 68.2677C37.9518 67.2026 35.1663 64.1285 32.2859 61.4485L25.5809 61.4571Z" fill="url(#paint5_linear)"/>
<path d="M26.9902 50.7792C25.5327 53.9918 25.9855 55.4422 28.1371 57.672C28.9262 58.4903 30.6251 59.9061 32.2895 61.4561C35.1698 64.1361 37.9553 67.2102 35.7735 68.2753C35.7735 68.2753 38.434 67.2535 40.3226 63.097C40.7495 62.1575 41.5903 59.5554 38.5461 57.4685C37.4897 56.7454 36.071 55.637 34.7257 54.3901C34.5748 54.2472 34.4196 54.1087 34.273 53.9658C31.9402 51.7274 29.9697 49.1339 30.6811 47.4973C30.6855 47.4886 30.6855 47.48 30.6898 47.4713C30.6941 47.467 28.4476 47.5666 26.9902 50.7792Z" fill="url(#paint6_linear)"/>
<path d="M87.9276 47.0864C86.9833 47.095 86.0649 47.2639 85.1939 47.5886C84.3358 47.909 83.5252 48.355 82.7878 48.9092L77.3074 53.0483L75.5697 49.0953C75.3326 48.5498 74.9229 48.1125 74.3494 47.8051C73.7673 47.4934 72.9955 47.3375 72.0512 47.3462L67.2822 47.4024L68.7914 50.9268L71.6114 57.5598C71.6114 57.5598 71.8442 58.1703 72.3272 58.8154C72.8317 59.4908 73.6121 60.1749 74.6815 60.3178C76.0311 60.4996 76.8374 60.2139 79.3685 58.4257C79.6703 58.2136 79.9851 57.9798 80.3344 57.72C83.4044 55.4513 93.9945 47.0344 93.9945 47.0344L87.9276 47.0864Z" fill="url(#paint7_linear)"/>
<path d="M33.1971 71.973C30.9463 71.973 28.9025 73.2979 27.9797 75.3588L26.7939 77.9999H43.1835L46.2536 71.973H33.1971Z" fill="url(#paint8_linear)"/>
<path d="M23.8777 81.413C21.6269 81.413 19.5831 82.7378 18.6603 84.7987L17.4702 87.4398H35.7096C37.5723 87.4398 39.2755 86.3921 40.1207 84.7295L41.8109 81.413H23.8777Z" fill="url(#paint9_linear)"/>
<path d="M53.2103 72.2769C52.3091 72.5627 51.4898 72.9047 50.7611 73.3074C50.0281 73.71 49.4115 74.169 48.907 74.6799C48.4025 75.1951 48.0489 75.7493 47.8419 76.3425C47.6738 76.836 47.6091 77.2863 47.6565 77.6976C47.7039 78.1046 47.8074 78.49 47.9756 78.8493C48.1394 79.2087 48.3292 79.5507 48.5491 79.8711C48.7647 80.1958 48.963 80.5076 49.1355 80.8193C49.3123 81.1267 49.4373 81.4384 49.5149 81.7545C49.5926 82.0706 49.5796 82.391 49.4632 82.72C49.3468 83.0621 49.101 83.3695 48.7259 83.6379C48.355 83.9063 47.9066 84.1315 47.3892 84.322C46.8717 84.5125 46.3026 84.6597 45.6817 84.7636C45.0607 84.8675 44.4355 84.9195 43.8103 84.9238L43.7715 87.1016C44.8365 87.093 45.8973 86.9977 46.9494 86.8115C48.0058 86.6254 48.976 86.3396 49.8642 85.9586C50.7525 85.5776 51.5243 85.1013 52.184 84.5255C52.8437 83.9496 53.3094 83.2656 53.5854 82.4646C53.732 82.0359 53.7794 81.6203 53.7191 81.2263C53.6587 80.828 53.5423 80.4513 53.3612 80.0919C53.1801 79.7326 52.9774 79.3819 52.7532 79.0398C52.529 78.6978 52.322 78.3644 52.1366 78.044C51.9512 77.7236 51.8132 77.4032 51.7313 77.0828C51.645 76.7624 51.6666 76.4464 51.7916 76.1303C51.9684 75.6627 52.4945 75.2038 53.3741 74.7621C54.2537 74.3205 55.4266 73.9828 56.8926 73.749L56.0906 71.6534C55.0687 71.7833 54.1114 71.9955 53.2103 72.2769Z" fill="url(#paint10_linear)"/>
<path d="M60.3187 72.6175C59.7927 73.8298 59.2235 75.0248 58.6112 76.1938C57.9989 77.3628 57.3996 78.5318 56.8088 79.7008C56.2181 80.8698 55.6791 82.0475 55.1833 83.2381C54.6874 84.4288 54.2907 85.6368 53.9932 86.8707L57.7704 86.4377C58.055 85.4246 58.4431 84.3292 58.9346 83.1602C59.4219 81.9912 59.9479 80.8438 60.5041 79.7181L60.9569 80.9867C61.2501 80.991 61.6339 80.9997 62.0995 81.004C62.5652 81.0127 63.0568 81.0127 63.5742 80.9997C64.0916 80.991 64.6091 80.9737 65.1265 80.9477C65.6396 80.9261 66.0967 80.8828 66.4891 80.8265C65.9932 82.0431 65.5922 83.1559 65.2817 84.1733C64.9713 85.1865 64.7298 86.126 64.5573 86.9919L68.4165 86.3295C68.6192 85.325 68.9296 84.2339 69.3479 83.0476C69.7618 81.8613 70.2404 80.649 70.7837 79.4107C71.327 78.1724 71.9221 76.9342 72.5732 75.7045C73.2243 74.4706 73.8797 73.2973 74.548 72.1716L70.788 72.5482C70.262 73.3059 69.7316 74.1762 69.2013 75.159C68.6666 76.1462 68.1405 77.168 67.6188 78.2287C67.1315 78.285 66.6098 78.324 66.0579 78.3456C65.506 78.3673 64.9454 78.3846 64.3892 78.3933C63.8329 78.4019 63.2853 78.4019 62.7506 78.3846C62.216 78.3673 61.7158 78.337 61.2501 78.2937C61.8193 77.181 62.341 76.1159 62.8196 75.0984C63.2939 74.0809 63.7165 73.0505 64.0917 72.0114L60.3187 72.6175Z" fill="url(#paint11_linear)"/>
<path d="M78.3153 85.0369C77.6771 85.0282 77.2071 84.8897 76.8967 84.6299C76.5862 84.3701 76.3879 84.0497 76.3059 83.6644C76.2197 83.2791 76.2154 82.8591 76.293 82.4045C76.3706 81.9455 76.4827 81.5169 76.6207 81.1099C76.7501 80.7289 76.9268 80.3003 77.1467 79.8153C77.3667 79.3348 77.6254 78.8498 77.9272 78.3563C78.229 77.867 78.574 77.3821 78.9621 76.9102C79.3501 76.4382 79.777 76.0226 80.247 75.6589C80.7127 75.2952 81.2215 75.0051 81.7648 74.7843C82.3081 74.5635 82.8902 74.4596 83.5111 74.4682C84.1795 74.4812 84.6797 74.6111 85.0117 74.8666C85.348 75.122 85.5679 75.4424 85.6757 75.8321C85.7835 76.2217 85.8008 76.6547 85.7231 77.1223C85.6455 77.5942 85.5334 78.0445 85.3868 78.4732C85.2445 78.8931 85.0591 79.3434 84.8392 79.8327C84.615 80.3219 84.3563 80.8068 84.0587 81.2918C83.7569 81.7767 83.412 82.2486 83.0196 82.7075C82.6272 83.1665 82.196 83.5691 81.726 83.9112C81.256 84.2532 80.7386 84.5303 80.1651 84.7382C79.6218 84.9373 79.0397 85.0326 78.4101 85.0326C78.3843 85.0369 78.3498 85.0369 78.3153 85.0369ZM80.648 72.9745C79.32 73.4508 78.1299 74.0916 77.0691 74.9055C76.0084 75.7152 75.1029 76.6547 74.3483 77.7198C73.5894 78.7849 73.0159 79.8933 72.6192 81.045C72.3131 81.9325 72.1579 82.7508 72.1492 83.5042C72.1406 84.2576 72.3045 84.907 72.6451 85.4612C72.9858 86.0154 73.5204 86.4527 74.2448 86.7688C74.9692 87.0848 75.9179 87.2537 77.0821 87.2753C78.6042 87.3013 80.0271 87.0675 81.3595 86.5826C82.6876 86.0933 83.8906 85.4439 84.9599 84.6256C86.0293 83.8073 86.9477 82.8634 87.7109 81.794C88.4784 80.7246 89.0562 79.6162 89.4486 78.4775C89.7505 77.6029 89.8971 76.7933 89.8971 76.0486C89.8971 75.3039 89.716 74.6544 89.3581 74.1089C89.0002 73.5633 88.4569 73.1304 87.7325 72.81C87.0081 72.4939 86.0767 72.3251 84.9427 72.3077C84.8608 72.3077 84.7831 72.3077 84.7055 72.3077C83.2567 72.2991 81.9071 72.5242 80.648 72.9745Z" fill="url(#paint12_linear)"/>
<path d="M96.4291 79.6977C96.2265 79.6934 96.0238 79.6674 95.8125 79.6198C95.6013 79.5722 95.446 79.5159 95.3469 79.451C95.5538 79.0353 95.7565 78.637 95.9548 78.2646C96.1532 77.8923 96.3429 77.5243 96.524 77.1562C96.7051 76.7882 96.8776 76.4202 97.0458 76.0479C97.2139 75.6755 97.3821 75.2858 97.5546 74.8788C97.7313 74.8572 97.9599 74.8356 98.2272 74.8226C98.4989 74.8096 98.7188 74.8009 98.8869 74.8052C99.2923 74.8096 99.6674 74.8529 100.017 74.9308C100.366 75.0044 100.651 75.13 100.875 75.2988C101.099 75.4677 101.25 75.6885 101.327 75.9569C101.405 76.2254 101.379 76.5501 101.25 76.9311C101.095 77.3857 100.845 77.7884 100.508 78.1304C100.172 78.4768 99.7795 78.7669 99.3397 79.0093C98.8956 79.2518 98.4213 79.4293 97.9168 79.5419C97.4425 79.6458 96.9811 79.6977 96.5283 79.6977C96.4938 79.6977 96.4636 79.6977 96.4291 79.6977ZM96.7569 72.688C95.4719 72.792 94.2171 72.9695 92.9926 73.2163C92.8632 73.5453 92.7425 73.909 92.6304 74.3117C92.5139 74.71 92.4234 75.1083 92.3501 75.5023C92.764 75.433 93.1866 75.3638 93.6178 75.2945C94.049 75.2252 94.5837 75.143 95.2218 75.052C94.976 75.1776 94.7475 75.2988 94.5319 75.4244C94.3422 75.524 94.1395 75.6365 93.9239 75.7578C93.7083 75.8833 93.5315 75.9872 93.3936 76.0738C92.9408 76.9831 92.4536 77.9312 91.9404 78.9097C91.423 79.8882 90.9271 80.8667 90.4528 81.8409C89.9785 82.8151 89.5473 83.7806 89.1636 84.7331C88.7798 85.69 88.4995 86.6035 88.3228 87.4824L92.1647 86.9369C92.3587 85.9194 92.6864 84.8976 93.1564 83.8758C93.6264 82.8497 94.105 81.8712 94.6009 80.936C94.6742 81.0399 94.7949 81.1958 94.9631 81.4123C95.1313 81.6244 95.2865 81.8019 95.4245 81.9448C95.584 81.9708 95.7479 81.9881 95.9117 81.9881C96.0756 81.9925 96.2006 81.9925 96.2955 81.9925C97.2441 82.0098 98.1755 81.9015 99.0982 81.6764C100.021 81.4512 100.879 81.1092 101.672 80.6589C102.47 80.2086 103.169 79.6501 103.768 78.992C104.367 78.3339 104.816 77.5805 105.109 76.7276C105.346 76.0435 105.389 75.446 105.247 74.9351C105.1 74.4242 104.812 73.9956 104.376 73.6492C103.941 73.3029 103.397 73.0387 102.737 72.8569C102.082 72.6707 101.358 72.5755 100.569 72.5625C100.362 72.5582 100.155 72.5582 99.9434 72.5582C98.8956 72.5538 97.8305 72.5971 96.7569 72.688Z" fill="url(#paint13_linear)"/>
<g filter="url(#filter2_i)">
<path fill-rule="evenodd" clip-rule="evenodd" d="M119.049 97.5217C115.711 110.45 103.971 120 90 120H30C18.2469 120 8.07226 113.241 3.15088 103.398C6.42439 100.71 10.6139 99.0962 15.1803 99.0962C20.683 99.0962 25.6383 101.439 29.1031 105.182C33.2856 100.496 39.3719 97.5461 46.1472 97.5461C54.9965 97.5461 62.6702 102.579 66.4623 109.939C68.7534 108.466 71.4799 107.611 74.4059 107.611C76.8323 107.611 79.1215 108.199 81.139 109.239C83.4017 99.0076 92.5266 91.3544 103.439 91.3544C109.476 91.3544 114.966 93.6965 119.049 97.5217Z" fill="white"/>
</g>
<defs>
<filter id="filter0_i" x="-1.65079" y="-2.47619" width="121.651" height="122.476" filterUnits="userSpaceOnUse" color-interpolation-filters="sRGB">
<feFlood flood-opacity="0" result="BackgroundImageFix"/>
<feBlend mode="normal" in="SourceGraphic" in2="BackgroundImageFix" result="shape"/>
<feColorMatrix in="SourceAlpha" type="matrix" values="0 0 0 0 0 0 0 0 0 0 0 0 0 0 0 0 0 0 127 0" result="hardAlpha"/>
<feOffset dx="-1.65079" dy="-2.47619"/>
<feGaussianBlur stdDeviation="2.47619"/>
<feComposite in2="hardAlpha" operator="arithmetic" k2="-1" k3="1"/>
<feColorMatrix type="matrix" values="0 0 0 0 0.941667 0 0 0 0 0.662804 0 0 0 0 0 0 0 0 0.61 0"/>
<feBlend mode="normal" in2="shape" result="effect1_innerShadow"/>
</filter>
<filter id="filter1_di" x="38.0081" y="10.7343" width="47.2844" height="24.3076" filterUnits="userSpaceOnUse" color-interpolation-filters="sRGB">
<feFlood flood-opacity="0" result="BackgroundImageFix"/>
<feColorMatrix in="SourceAlpha" type="matrix" values="0 0 0 0 0 0 0 0 0 0 0 0 0 0 0 0 0 0 127 0" result="hardAlpha"/>
<feOffset dx="1.65079" dy="0.825397"/>
<feGaussianBlur stdDeviation="1.2381"/>
<feColorMatrix type="matrix" values="0 0 0 0 0.316667 0 0 0 0 0 0 0 0 0 0 0 0 0 0.3 0"/>
<feBlend mode="normal" in2="BackgroundImageFix" result="effect1_dropShadow"/>
<feBlend mode="normal" in="SourceGraphic" in2="effect1_dropShadow" result="shape"/>
<feColorMatrix in="SourceAlpha" type="matrix" values="0 0 0 0 0 0 0 0 0 0 0 0 0 0 0 0 0 0 127 0" result="hardAlpha"/>
<feOffset dx="-0.536508" dy="-0.825397"/>
<feGaussianBlur stdDeviation="1.2381"/>
<feComposite in2="hardAlpha" operator="arithmetic" k2="-1" k3="1"/>
<feColorMatrix type="matrix" values="0 0 0 0 0.956863 0 0 0 0 0.65098 0 0 0 0 0.0392157 0 0 0 0.67 0"/>
<feBlend mode="normal" in2="shape" result="effect2_innerShadow"/>
</filter>
<filter id="filter2_i" x="2.73818" y="90.9417" width="116.311" height="29.058" filterUnits="userSpaceOnUse" color-interpolation-filters="sRGB">
<feFlood flood-opacity="0" result="BackgroundImageFix"/>
<feBlend mode="normal" in="SourceGraphic" in2="BackgroundImageFix" result="shape"/>
<feColorMatrix in="SourceAlpha" type="matrix" values="0 0 0 0 0 0 0 0 0 0 0 0 0 0 0 0 0 0 127 0" result="hardAlpha"/>
<feOffset dx="-0.412698" dy="-0.412698"/>
<feGaussianBlur stdDeviation="2.26984"/>
<feComposite in2="hardAlpha" operator="arithmetic" k2="-1" k3="1"/>
<feColorMatrix type="matrix" values="0 0 0 0 1 0 0 0 0 0.714255 0 0 0 0 0.15 0 0 0 0.39 0"/>
<feBlend mode="normal" in2="shape" result="effect1_innerShadow"/>
</filter>
<linearGradient id="paint0_linear" x1="10.9653" y1="113.419" x2="37.9307" y2="-6.87237" gradientUnits="userSpaceOnUse">
<stop stop-color="#FF7C03"/>
<stop offset="0.267357" stop-color="#FBB612"/>
<stop offset="0.881951" stop-color="#FFDD00"/>
</linearGradient>
<linearGradient id="paint1_linear" x1="67.3703" y1="68.2515" x2="77.247" y2="57.4316" gradientUnits="userSpaceOnUse">
<stop offset="0.203125" stop-color="#E7232A"/>
<stop offset="1" stop-color="#7B0000"/>
</linearGradient>
<linearGradient id="paint2_linear" x1="52.4478" y1="67.9781" x2="71.9028" y2="53.7861" gradientUnits="userSpaceOnUse">
<stop offset="0.203125" stop-color="#E7232A"/>
<stop offset="1" stop-color="#7B0000"/>
</linearGradient>
<linearGradient id="paint3_linear" x1="39.4091" y1="67.9717" x2="59.0378" y2="53.43" gradientUnits="userSpaceOnUse">
<stop offset="0.203125" stop-color="#E7232A"/>
<stop offset="1" stop-color="#7B0000"/>
</linearGradient>
<linearGradient id="paint4_linear" x1="30.3547" y1="54.2052" x2="35.4869" y2="42.8272" gradientUnits="userSpaceOnUse">
<stop offset="0.203125" stop-color="#E7232A"/>
<stop offset="1" stop-color="#7B0000"/>
</linearGradient>
<linearGradient id="paint5_linear" x1="18.9362" y1="68.3296" x2="23.9469" y2="56.8486" gradientUnits="userSpaceOnUse">
<stop offset="0.203125" stop-color="#E7232A"/>
<stop offset="1" stop-color="#7B0000"/>
</linearGradient>
<linearGradient id="paint6_linear" x1="25.9849" y1="67.7434" x2="44.412" y2="55.7212" gradientUnits="userSpaceOnUse">
<stop offset="0.203125" stop-color="#E7232A"/>
<stop offset="1" stop-color="#7B0000"/>
</linearGradient>
<linearGradient id="paint7_linear" x1="66.9914" y1="60.0242" x2="77.7503" y2="40.005" gradientUnits="userSpaceOnUse">
<stop offset="0.203125" stop-color="#E7232A"/>
<stop offset="1" stop-color="#7B0000"/>
</linearGradient>
<linearGradient id="paint8_linear" x1="26.5821" y1="77.8458" x2="30.0833" y2="67.3486" gradientUnits="userSpaceOnUse">
<stop offset="0.203125" stop-color="#E7232A"/>
<stop offset="1" stop-color="#7B0000"/>
</linearGradient>
<linearGradient id="paint9_linear" x1="17.2052" y1="87.2858" x2="20.1092" y2="76.3951" gradientUnits="userSpaceOnUse">
<stop offset="0.203125" stop-color="#E7232A"/>
<stop offset="1" stop-color="#7B0000"/>
</linearGradient>
<linearGradient id="paint10_linear" x1="43.6286" y1="86.7067" x2="58.1671" y2="75.2403" gradientUnits="userSpaceOnUse">
<stop offset="0.203125" stop-color="#E7232A"/>
<stop offset="1" stop-color="#7B0000"/>
</linearGradient>
<linearGradient id="paint11_linear" x1="53.7694" y1="86.609" x2="67.8517" y2="68.6668" gradientUnits="userSpaceOnUse">
<stop offset="0.203125" stop-color="#E7232A"/>
<stop offset="1" stop-color="#7B0000"/>
</linearGradient>
<linearGradient id="paint12_linear" x1="71.9557" y1="86.8946" x2="86.376" y2="71.019" gradientUnits="userSpaceOnUse">
<stop offset="0.203125" stop-color="#E7232A"/>
<stop offset="1" stop-color="#7B0000"/>
</linearGradient>
<linearGradient id="paint13_linear" x1="88.1376" y1="87.1009" x2="102.558" y2="71.8434" gradientUnits="userSpaceOnUse">
<stop offset="0.203125" stop-color="#E7232A"/>
<stop offset="1" stop-color="#7B0000"/>
</linearGradient>
</defs>
</svg>
