<svg width="223" height="40" viewBox="0 0 223 40" fill="none" xmlns="http://www.w3.org/2000/svg">
<path d="M53.2027 20.006H39.042C38.9096 23.0516 40.1007 25.3027 43.674 25.3027C46.1885 25.3027 48.7031 24.5082 50.0265 23.9785L50.6882 28.3483C48.7031 29.2752 45.6592 30.0697 42.0859 30.0697C35.9981 30.0697 32.4248 26.6268 32.4248 20.8005C32.4248 17.2252 33.6159 13.2527 35.7334 10.472C37.9832 7.16155 41.5565 5.17529 45.9239 5.17529C51.2176 5.17529 54.2615 8.22088 54.2615 13.65C54.2615 14.9741 53.8645 17.8873 53.2027 20.006ZM45.1298 9.28022C43.1446 9.28022 41.4242 10.6044 40.2331 12.9879C39.7037 14.0472 39.7037 14.3121 39.3067 15.5038H47.6443C47.7767 14.8417 48.0413 13.65 48.0413 12.8555C48.1737 10.472 47.1149 9.28022 45.1298 9.28022Z" fill="white"/>
<path d="M9.26405 36.6925H2.91156L0 5.83936H6.88187L8.07296 26.7612L17.734 5.83936H24.7483L9.26405 36.6925Z" fill="white"/>
<path d="M68.2898 10.3389H64.5842L61.9373 22.9185C61.805 23.3157 61.4079 25.4344 63.6578 25.5668C64.3195 25.5668 65.2459 25.4344 65.6429 25.302C65.6429 25.302 64.5842 30.2014 59.6875 30.2014C55.9818 30.2014 54.2614 27.4207 55.0554 23.1833L59.5551 2.12902C59.5551 2.12902 62.0696 -0.65174 66.834 0.142762C66.0399 4.11527 65.6429 5.83669 65.6429 5.83669H69.3485L68.2898 10.3389Z" fill="white"/>
<path d="M114.345 10.337H110.64L107.993 22.9166C107.861 23.3138 107.464 25.4325 109.713 25.5649C110.375 25.5649 111.302 25.4325 111.699 25.3001C111.699 25.3001 110.64 30.1995 105.743 30.1995C102.038 30.1995 100.317 27.4188 101.111 23.1814L105.478 2.39196C105.478 2.39196 107.993 -0.388801 112.757 0.405702C111.963 4.37821 111.566 6.09963 111.566 6.09963H115.272L114.345 10.337Z" fill="white"/>
<path d="M99.2579 20.006H85.0971C84.9648 23.0516 86.1559 25.3027 89.7292 25.3027C92.2437 25.3027 94.7582 24.5082 96.0816 23.9785L96.7434 28.3483C94.7582 29.2752 91.7143 30.0697 88.141 30.0697C82.0532 30.0697 78.6123 26.6268 78.6123 20.8005C78.6123 17.2252 79.8034 13.2527 81.7885 10.472C84.1707 7.16155 87.6117 5.17529 91.979 5.17529C97.2727 5.17529 100.317 8.22088 100.317 13.65C100.317 14.9741 99.9196 17.8873 99.2579 20.006ZM91.1849 9.28022C89.1998 9.28022 87.4793 10.6044 86.2882 12.9879C85.7589 14.0472 85.7589 14.3121 85.3618 15.5038H93.6995C93.8318 14.8417 94.0965 13.65 94.0965 12.8555C94.2288 10.472 93.0378 9.28022 91.1849 9.28022Z" fill="white"/>
<path d="M164.238 10.3388C162.65 9.67667 160.797 9.67667 159.606 10.2063L155.503 29.8041H148.621L153.518 7.16074C156.429 5.57174 161.723 4.64482 165.826 5.43932L164.238 10.3388Z" fill="white"/>
<path d="M130.887 36.6925L131.019 29.8068H121.623L117.785 36.6925H111.035L129.563 5.83936H136.577L137.769 36.6925H130.887ZM131.151 12.725L124.005 25.4371H131.019L131.151 12.725Z" fill="white"/>
<path d="M61.8037 40.0001C55.7159 40.0001 52.2749 36.0276 52.8043 31.7903C55.8482 35.2331 61.539 35.3655 64.8476 32.3199C66.0387 31.2606 67.0974 29.5392 67.8915 25.4342C69.3472 18.4161 71.9941 5.7041 71.9941 5.7041H78.876L74.1116 28.215C72.6558 35.4979 68.0238 40.0001 61.8037 40.0001Z" fill="white"/>
<path d="M27.7915 29.8068H21.042L26.0711 5.83936H32.8206L27.7915 29.8068Z" fill="white"/>
<path d="M145.577 29.8068H138.695L143.724 5.83936H150.606L145.577 29.8068Z" fill="white"/>
<path d="M161.194 30.0699C160.003 30.0699 159.209 29.2754 159.209 28.2161C159.209 26.7595 160.532 25.4353 161.988 25.4353C163.179 25.4353 163.973 26.2298 163.973 27.2891C164.106 28.7457 162.65 30.0699 161.194 30.0699Z" fill="white"/>
<path d="M178.399 15.5007C178.002 15.2358 177.34 14.8386 176.546 14.8386C175.222 14.8386 174.031 15.6331 173.105 17.2221C172.179 18.6787 171.649 21.0622 171.649 22.7836C171.649 25.0347 172.576 26.094 174.031 26.094C174.958 26.094 175.884 25.8292 176.414 25.432L176.811 28.61C176.017 29.4045 174.428 29.9341 172.311 29.9341C168.87 29.9341 166.355 27.2858 166.355 23.0484C166.355 20.4001 167.414 17.2221 168.87 15.1034C170.59 12.5875 173.237 11.3958 175.752 11.3958C177.737 11.3958 179.457 12.1903 179.987 12.7199L178.399 15.5007Z" fill="white"/>
<path d="M191.765 26.0979C190.177 28.4814 187.53 30.0704 184.222 30.0704C179.987 30.0704 177.869 27.422 177.869 23.4495C177.869 20.8012 178.796 17.6232 180.251 15.5045C181.972 12.9886 184.486 11.532 187.795 11.532C192.03 11.532 194.28 14.1803 194.28 18.0204C194.28 20.6688 193.221 23.9792 191.765 26.0979ZM187.398 14.71C186.074 14.71 185.016 15.7693 184.354 17.3583C183.56 19.0798 182.898 22.1253 182.898 23.9792C182.898 25.5682 183.295 26.4951 184.751 26.4951C186.207 26.4951 187.133 25.5682 187.795 23.9792C188.589 22.2578 189.251 19.2122 189.251 17.3583C189.251 15.7693 188.721 14.71 187.398 14.71Z" fill="white"/>
<path d="M221.544 17.3583L219.029 29.8055H213.868L216.515 17.0935C216.515 16.8287 216.647 16.6962 216.647 16.4314C216.647 15.3721 215.985 14.71 214.529 14.71C213.603 14.71 212.677 15.1072 212.015 15.6369L209.103 29.8055H203.942L206.589 17.0935C206.589 16.8287 206.721 16.6962 206.721 16.4314C206.721 15.3721 205.927 14.71 204.339 14.71C203.545 14.71 202.751 14.8424 202.089 15.1072L199.045 29.8055H193.884L197.457 12.8562C199.575 11.9292 202.089 11.532 205.001 11.532C207.383 11.532 209.368 12.3265 210.162 13.3858C211.353 12.4589 213.603 11.532 216.647 11.532C220.352 11.532 222.073 13.3858 222.073 16.0342C221.676 16.5638 221.676 16.9611 221.544 17.3583Z" fill="white"/>
</svg>
