<svg width="22" height="14" viewBox="0 0 22 14" fill="none"><path d="M20.8386 0H1.94422C1.66583 0 1.39883 0.105357 1.20198 0.292893C1.00512 0.48043 0.894531 0.734784 0.894531 1V5H1.8319C2.87739 5 3.84731 5.681 4.01526 6.664C4.06642 6.95104 4.05122 7.24525 3.97071 7.52612C3.89021 7.80698 3.74633 8.06772 3.54914 8.29015C3.35194 8.51258 3.10617 8.69133 2.82897 8.81393C2.55177 8.93654 2.24983 9.00004 1.94422 9H0.894531V13C0.894531 13.2652 1.00512 13.5196 1.20198 13.7071C1.39883 13.8946 1.66583 14 1.94422 14H20.8386C21.117 14 21.384 13.8946 21.5809 13.7071C21.7777 13.5196 21.8883 13.2652 21.8883 13V9H20.8386C20.533 9.00004 20.2311 8.93654 19.9539 8.81393C19.6767 8.69133 19.4309 8.51258 19.2337 8.29015C19.0365 8.06772 18.8926 7.80698 18.8121 7.52612C18.7316 7.24525 18.7164 6.95104 18.7676 6.664C18.9355 5.681 19.9055 5 20.9509 5H21.8883V1C21.8883 0.734784 21.7777 0.48043 21.5809 0.292893C21.384 0.105357 21.117 0 20.8386 0ZM8.24236 4C8.52075 4 8.78774 4.10536 8.9846 4.29289C9.18145 4.48043 9.29205 4.73478 9.29205 5C9.29205 5.26522 9.18145 5.51957 8.9846 5.70711C8.78774 5.89464 8.52075 6 8.24236 6C7.96396 6 7.69697 5.89464 7.50012 5.70711C7.30326 5.51957 7.19267 5.26522 7.19267 5C7.19267 4.73478 7.30326 4.48043 7.50012 4.29289C7.69697 4.10536 7.96396 4 8.24236 4ZM7.40261 10.4L13.7007 2.4L15.3802 3.6L9.08211 11.6L7.40261 10.4ZM14.5405 10C14.2621 10 13.9951 9.89464 13.7983 9.70711C13.6014 9.51957 13.4908 9.26522 13.4908 9C13.4908 8.73478 13.6014 8.48043 13.7983 8.29289C13.9951 8.10536 14.2621 8 14.5405 8C14.8189 8 15.0859 8.10536 15.2827 8.29289C15.4796 8.48043 15.5902 8.73478 15.5902 9C15.5902 9.26522 15.4796 9.51957 15.2827 9.70711C15.0859 9.89464 14.8189 10 14.5405 10Z" fill="#333333"></path></svg>